# xmcd CD database file
#
# Track frame offsets:
#	150
#	16668
#	36186
#	53304
#	67272
#	84990
#	100308
#	120726
#	138144
#	152262
#	172230
#	195198
#	210366
#	221184
#
# Disc length: 3191 seconds
#
# Revision: 0
# Processed by: cddbd v1.5.2PL0 Copyright (c) Steve Scherf et al.
# Submitted via: CDex 1.70beta2
#
DISCID=b10c750e
DTITLE=Brad Prevedoros - After Hours
DYEAR=1900
DGENRE=New Age
TTITLE0=After Hours
TTITLE1=Icarus
TTITLE2=Willis Point Swing
TTITLE3=Recovery
TTITLE4=Some Other Time
TTITLE5=Chi'a Filght
TTITLE6=Heart And Hand
TTITLE7=Afro Blue
TTITLE8=Soliloquy
TTITLE9=Iris Lovers
TTITLE10=Windows
TTITLE11=Meagan
TTITLE12=Tara's Lullaby
TTITLE13=Innocent!
EXTD=
EXTT0=
EXTT1=
EXTT2=
EXTT3=
EXTT4=
EXTT5=
EXTT6=
EXTT7=
EXTT8=
EXTT9=
EXTT10=
EXTT11=
EXTT12=
EXTT13=
PLAYORDER=
